<svg version="1.1" xmlns="http://www.w3.org/2000/svg" xmlns:xlink="http://www.w3.org/1999/xlink" role="img" width="128" height="90" viewbox="0 0 128 90"><title>cam</title><desc>Generated by logo.svg, https://github.com/bubkoo/logo.svg</desc><path fill="#2b68a7" d="M16.23 70.99Q12.78 70.99 9.96 69.52Q7.14 68.05 5.45 65.14Q3.75 62.22 3.75 57.74Q3.75 54.22 4.97 50.32Q6.18 46.42 8.62 43.02Q11.05 39.63 14.60 37.52Q18.15 35.41 22.82 35.41Q27.62 35.41 29.90 37.30Q32.17 39.18 32.17 41.55Q32.17 43.34 30.70 44.69Q29.22 46.03 26.47 46.03Q26.47 42.96 25.29 40.72Q24.10 38.48 21.54 38.48Q19.50 38.48 17.77 39.86Q16.04 41.23 14.66 43.44Q13.29 45.65 12.36 48.30Q11.43 50.96 10.92 53.58Q10.41 56.21 10.41 58.26Q10.41 62.42 12.20 64.69Q13.99 66.96 17.45 66.96Q20.84 66.96 23.08 65.49Q25.32 64.02 26.66 62.35Q27.30 62.80 27.30 63.95Q27.30 65.36 26.12 66.99Q24.94 68.62 22.50 69.81Q20.07 70.99 16.23 70.99ZM43.18 70.99Q40.36 70.99 38.50 69.46Q36.65 67.92 35.78 65.26Q34.92 62.61 34.92 59.28Q34.92 56.27 35.72 52.98Q36.52 49.68 38.12 46.58Q39.72 43.47 42.02 40.94Q44.33 38.42 47.34 36.91Q50.34 35.41 53.99 35.41Q56.30 35.41 58.25 36.05Q60.20 36.69 61.48 37.71L64.30 36.11L66.34 36.11L61.99 56.59Q61.86 57.30 61.61 58.64Q61.35 59.98 61.19 61.39Q61.03 62.80 61.03 63.70Q61.03 66.96 63.14 66.96Q64.17 66.96 65.35 66.48Q66.54 66 67.75 65.30L68.90 67.15Q68.01 67.98 66.47 68.88Q64.94 69.78 63.21 70.38Q61.48 70.99 59.88 70.99Q57.58 70.99 56.23 69.58Q54.89 68.18 54.89 65.68Q54.89 64.40 55.05 63.34Q55.21 62.29 55.53 60.69L55.14 60.69Q52.90 65.62 49.93 68.30Q46.95 70.99 43.18 70.99M45.48 66.96Q47.14 66.96 48.90 65.68Q50.66 64.40 52.23 62.22Q53.80 60.05 55.02 57.36Q56.23 54.67 56.81 51.92L59.18 40.59Q58.47 39.44 57.13 38.86Q55.78 38.29 54.31 38.29Q51.75 38.29 49.70 39.73Q47.66 41.17 46.12 43.54Q44.58 45.90 43.53 48.72Q42.47 51.54 41.96 54.38Q41.45 57.23 41.45 59.54Q41.45 63.50 42.60 65.23Q43.75 66.96 45.48 66.96ZM117.67 70.99Q114.86 70.99 113.35 69.20Q111.85 67.41 111.85 64.59Q111.85 61.65 113.06 55.95L114.15 50.96Q114.34 50.13 114.66 48.75Q114.98 47.38 115.24 45.94Q115.50 44.50 115.50 43.34Q115.50 42.06 114.95 40.82Q114.41 39.57 112.55 39.57Q110.70 39.57 108.87 40.82Q107.05 42.06 105.45 44.05Q103.85 46.03 102.66 48.30Q101.48 50.58 100.84 52.56L99.82 57.17Q99.62 58.06 99.30 59.92Q98.98 61.78 98.70 63.92Q98.41 66.06 98.18 67.86Q97.96 69.65 97.96 70.35L91.88 70.35Q91.88 69.58 92.10 67.82Q92.33 66.06 92.65 63.86Q92.97 61.65 93.35 59.54Q93.74 57.42 94.06 55.95L95.14 50.96Q95.34 50.13 95.66 48.75Q95.98 47.38 96.23 45.94Q96.49 44.50 96.49 43.34Q96.49 42.06 95.94 40.82Q95.40 39.57 93.54 39.57Q91.50 39.57 89.54 41.04Q87.59 42.51 85.90 44.82Q84.20 47.12 83.02 49.58Q81.83 52.05 81.45 53.97L77.99 70.35L72.04 70.35L77.42 44.62Q77.61 43.73 77.70 42.90Q77.80 42.06 77.80 41.74Q77.80 39.82 76.46 39.28Q75.11 38.74 73.32 38.74L72.81 38.74L73.38 36.05L85.22 36.05L83.50 44.11L84.14 44.11Q86.76 39.89 89.48 37.68Q92.20 35.47 95.78 35.47Q99.56 35.47 101.10 37.62Q102.63 39.76 102.63 42.58Q102.63 42.96 102.60 43.34Q102.57 43.73 102.50 44.11L103.14 44.11Q105.70 39.89 108.46 37.68Q111.21 35.47 114.79 35.47Q118.57 35.47 120.10 37.62Q121.64 39.76 121.64 42.58Q121.64 44.18 121.22 46.06Q120.81 47.95 120.49 49.62L118.82 57.17Q118.44 58.96 118.22 60.69Q117.99 62.42 117.99 63.89Q117.99 66.96 120.23 66.96Q122.09 66.96 124.33 65.49L125.48 67.34Q123.94 68.62 122.06 69.81Q120.17 70.99 117.67 70.99Z"></path></svg>